<svg width="813" height="195" viewBox="0 0 813 195" fill="none" xmlns="http://www.w3.org/2000/svg">
<path d="M49.79 50.31C61.23 50.31 70.72 53.2567 78.26 59.15C85.8 65.0433 90.7833 73.06 93.21 83.2H73.97C71.9767 78.26 68.8567 74.36 64.61 71.5C60.45 68.64 55.4233 67.21 49.53 67.21C44.6767 67.21 40.3 68.4233 36.4 70.85C32.5 73.2767 29.4667 76.7433 27.3 81.25C25.1333 85.7567 24.05 91.0433 24.05 97.11C24.05 103.09 25.1333 108.333 27.3 112.84C29.4667 117.347 32.5 120.813 36.4 123.24C40.3 125.667 44.6767 126.88 49.53 126.88C55.4233 126.88 60.45 125.45 64.61 122.59C68.8567 119.73 71.9767 115.83 73.97 110.89H93.21C90.7833 121.03 85.8 129.047 78.26 134.94C70.72 140.833 61.23 143.78 49.79 143.78C41.0367 143.78 33.28 141.83 26.52 137.93C19.8467 133.943 14.6467 128.397 10.92 121.29C7.28 114.183 5.46 106.123 5.46 97.11C5.46 88.01 7.28 79.9067 10.92 72.8C14.6467 65.6933 19.8467 60.19 26.52 56.29C33.1933 52.3033 40.95 50.31 49.79 50.31ZM125.293 128.96H156.103V143H106.963V51.22H125.293V128.96ZM185.341 65.78V89.57H217.841V103.61H185.341V128.31H221.741V143H167.011V51.22H221.741V65.78H185.341ZM291.212 124.54H254.422L247.922 143H228.552L262.352 52.26H283.282L316.952 143H297.582L291.212 124.54ZM286.272 110.63L272.752 71.89L259.232 110.63H286.272ZM404.585 143H386.255L345.175 80.6V143H326.845V51.22H345.175L386.255 114.14V51.22H404.585V143ZM497.222 51.22V143H478.762V103.09H439.502V143H421.172V51.22H439.502V88.4H478.762V51.22H497.222ZM645.42 128.96H676.23V143H627.09V51.22H645.42V128.96ZM705.468 51.22V143H687.138V51.22H705.468ZM763.52 50.31C774.96 50.31 784.45 53.2567 791.99 59.15C799.53 65.0433 804.514 73.06 806.94 83.2H787.7C785.707 78.26 782.587 74.36 778.34 71.5C774.18 68.64 769.154 67.21 763.26 67.21C758.407 67.21 754.03 68.4233 750.13 70.85C746.23 73.2767 743.197 76.7433 741.03 81.25C738.864 85.7567 737.78 91.0433 737.78 97.11C737.78 103.09 738.864 108.333 741.03 112.84C743.197 117.347 746.23 120.813 750.13 123.24C754.03 125.667 758.407 126.88 763.26 126.88C769.154 126.88 774.18 125.45 778.34 122.59C782.587 119.73 785.707 115.83 787.7 110.89H806.94C804.514 121.03 799.53 129.047 791.99 134.94C784.45 140.833 774.96 143.78 763.52 143.78C754.767 143.78 747.01 141.83 740.25 137.93C733.577 133.943 728.377 128.397 724.65 121.29C721.01 114.183 719.19 106.123 719.19 97.11C719.19 88.01 721.01 79.9067 724.65 72.8C728.377 65.6933 733.577 60.19 740.25 56.29C746.924 52.3033 754.68 50.31 763.52 50.31Z" fill="#3056D3"/>
<path fill-rule="evenodd" clip-rule="evenodd" d="M610 98C610 125.062 588.062 147 561 147C533.938 147 512 125.062 512 98C512 70.938 533.938 49 561 49C588.062 49 610 70.938 610 98ZM619 98C619 130.033 593.033 156 561 156C528.967 156 503 130.033 503 98C503 65.9675 528.967 40 561 40C593.033 40 619 65.9675 619 98ZM601.149 98.4328C601.149 120.368 583.368 138.149 561.433 138.149C539.498 138.149 521.716 120.368 521.716 98.4328C521.716 76.4981 539.498 58.7164 561.433 58.7164C583.368 58.7164 601.149 76.4981 601.149 98.4328ZM605.149 98.4328C605.149 122.577 585.577 142.149 561.433 142.149C537.289 142.149 517.716 122.577 517.716 98.4328C517.716 74.2889 537.289 54.7164 561.433 54.7164C585.577 54.7164 605.149 74.2889 605.149 98.4328Z" fill="#3056D3"/>
<path d="M601.985 93.5373C598.234 90.3632 587.875 82.1104 576.448 91.806C562.164 103.925 560 113.015 542.687 108.687C528.836 105.224 524.796 114.746 521.91 113.448" stroke="#3056D3" stroke-width="5"/>
<rect x="547.881" y="117.776" width="5.19403" height="5.19403" fill="black" fill-opacity="0.08"/>
<rect x="580.776" y="103.925" width="5.19403" height="5.19403" fill="black" fill-opacity="0.08"/>
<rect x="571.254" y="122.97" width="5.19403" height="5.19403" fill="black" fill-opacity="0.08"/>
</svg>
