<svg width="843" height="136" viewBox="0 0 843 136" fill="none" xmlns="http://www.w3.org/2000/svg">
<path d="M49.79 25.31C61.23 25.31 70.72 28.2567 78.26 34.15C85.8 40.0433 90.7833 48.06 93.21 58.2H73.97C71.9767 53.26 68.8567 49.36 64.61 46.5C60.45 43.64 55.4233 42.21 49.53 42.21C44.6767 42.21 40.3 43.4233 36.4 45.85C32.5 48.2767 29.4667 51.7433 27.3 56.25C25.1333 60.7567 24.05 66.0433 24.05 72.11C24.05 78.09 25.1333 83.3333 27.3 87.84C29.4667 92.3467 32.5 95.8133 36.4 98.24C40.3 100.667 44.6767 101.88 49.53 101.88C55.4233 101.88 60.45 100.45 64.61 97.59C68.8567 94.73 71.9767 90.83 73.97 85.89H93.21C90.7833 96.03 85.8 104.047 78.26 109.94C70.72 115.833 61.23 118.78 49.79 118.78C41.0367 118.78 33.28 116.83 26.52 112.93C19.8467 108.943 14.6467 103.397 10.92 96.29C7.28 89.1833 5.46 81.1233 5.46 72.11C5.46 63.01 7.28 54.9067 10.92 47.8C14.6467 40.6933 19.8467 35.19 26.52 31.29C33.1933 27.3033 40.95 25.31 49.79 25.31ZM125.293 103.96H156.103V118H106.963V26.22H125.293V103.96ZM185.341 40.78V64.57H217.841V78.61H185.341V103.31H221.741V118H167.011V26.22H221.741V40.78H185.341ZM291.212 99.54H254.422L247.922 118H228.552L262.352 27.26H283.282L316.952 118H297.582L291.212 99.54ZM286.272 85.63L272.752 46.89L259.232 85.63H286.272ZM404.585 118H386.255L345.175 55.6V118H326.845V26.22H345.175L386.255 89.14V26.22H404.585V118ZM497.222 26.22V118H478.762V78.09H439.502V118H421.172V26.22H439.502V63.4H478.762V26.22H497.222ZM645.42 103.96H676.23V118H627.09V26.22H645.42V103.96ZM705.468 26.22V118H687.138V26.22H705.468ZM763.52 25.31C774.96 25.31 784.45 28.2567 791.99 34.15C799.53 40.0433 804.514 48.06 806.94 58.2H787.7C785.707 53.26 782.587 49.36 778.34 46.5C774.18 43.64 769.154 42.21 763.26 42.21C758.407 42.21 754.03 43.4233 750.13 45.85C746.23 48.2767 743.197 51.7433 741.03 56.25C738.864 60.7567 737.78 66.0433 737.78 72.11C737.78 78.09 738.864 83.3333 741.03 87.84C743.197 92.3467 746.23 95.8133 750.13 98.24C754.03 100.667 758.407 101.88 763.26 101.88C769.154 101.88 774.18 100.45 778.34 97.59C782.587 94.73 785.707 90.83 787.7 85.89H806.94C804.514 96.03 799.53 104.047 791.99 109.94C784.45 115.833 774.96 118.78 763.52 118.78C754.767 118.78 747.01 116.83 740.25 112.93C733.577 108.943 728.377 103.397 724.65 96.29C721.01 89.1833 719.19 81.1233 719.19 72.11C719.19 63.01 721.01 54.9067 724.65 47.8C728.377 40.6933 733.577 35.19 740.25 31.29C746.924 27.3033 754.68 25.31 763.52 25.31Z" fill="#071850"/>
<circle cx="560" cy="72" r="53.5" stroke="#071850" stroke-width="9"/>
<circle cx="560.433" cy="72.4328" r="41.7164" stroke="#071850" stroke-width="4"/>
<path d="M601.985 68.5373C598.234 65.3632 587.875 57.1104 576.448 66.806C562.164 78.9254 560 88.0149 542.687 83.6866C528.836 80.2239 524.796 89.7463 521.91 88.4478" stroke="#071850" stroke-width="5"/>
<rect x="547.881" y="92.7761" width="5.19403" height="5.19403" fill="#071850"/>
<rect x="580.776" y="78.9254" width="5.19403" height="5.19403" fill="#071850"/>
<rect x="571.254" y="97.9701" width="5.19403" height="5.19403" fill="#071850"/>
</svg>
